HIERARCHY
ROOT Hips
{
	OFFSET -0.001795 -0.223333 0.028219
	CHANNELS 6 Xposition Yposition Zposition Zrotation Yrotation Xrotation 
	JOINT LeftUpLeg
	{
		OFFSET 0.069520 -0.091406 -0.006815
		CHANNELS 3 Zrotation Yrotation Xrotation
		JOINT LeftLeg
		{
			OFFSET 0.034277 -0.375199 -0.004496
			CHANNELS 3 Zrotation Yrotation Xrotation
			JOINT LeftFoot
			{
				OFFSET -0.013596 -0.397961 -0.043693
				CHANNELS 3 Zrotation Yrotation Xrotation
				JOINT LeftToe
				{
					OFFSET 0.026358 -0.055791 0.119288
					CHANNELS 3 Zrotation Yrotation Xrotation
					End Site
					{
						OFFSET 0.000000 0.000000 0.000000
					}
				}
			}
		}
	}
	JOINT RightUpLeg
	{
		OFFSET -0.067670 -0.090522 -0.004320
		CHANNELS 3 Zrotation Yrotation Xrotation
		JOINT RightLeg
		{
			OFFSET -0.038290 -0.382569 -0.008850
			CHANNELS 3 Zrotation Yrotation Xrotation
			JOINT RightFoot
			{
				OFFSET 0.015774 -0.398415 -0.042312
				CHANNELS 3 Zrotation Yrotation Xrotation
				JOINT RightToe
				{
					OFFSET -0.025372 -0.048144 0.123348
					CHANNELS 3 Zrotation Yrotation Xrotation
					End Site
					{
						OFFSET 0.000000 0.000000 0.000000
					}
				}
			}
		}
	}
	JOINT Spine
	{
		OFFSET -0.002533 0.108963 -0.026696
		CHANNELS 3 Zrotation Yrotation Xrotation
		JOINT Spine1
		{
			OFFSET 0.005487 0.135180 0.001092
			CHANNELS 3 Zrotation Yrotation Xrotation
			JOINT Spine2
			{
				OFFSET 0.001457 0.052922 0.025425
				CHANNELS 3 Zrotation Yrotation Xrotation
				JOINT Neck
				{
					OFFSET -0.002778 0.213870 -0.042857
					CHANNELS 3 Zrotation Yrotation Xrotation
					JOINT Head
					{
						OFFSET 0.005152 0.064970 0.051349
						CHANNELS 3 Zrotation Yrotation Xrotation
						End Site
						{
							OFFSET 0.000000 0.000000 0.000000
						}
					}
				}
				JOINT LeftShoulder
				{
					OFFSET 0.078845 0.121749 -0.034090
					CHANNELS 3 Zrotation Yrotation Xrotation
					JOINT LeftArm
					{
						OFFSET 0.090977 0.030469 -0.008868
						CHANNELS 3 Zrotation Yrotation Xrotation
						JOINT LeftForeArm
						{
							OFFSET 0.259612 -0.012772 -0.027456
							CHANNELS 3 Zrotation Yrotation Xrotation
							JOINT LeftHand
							{
								OFFSET 0.249234 0.008986 -0.001171
								CHANNELS 3 Zrotation Yrotation Xrotation
								End Site
								{
									OFFSET 0.000000 0.000000 0.000000
								}
							}
						}
					}
				}
				JOINT RightShoulder
				{
					OFFSET -0.081759 0.118833 -0.038615
					CHANNELS 3 Zrotation Yrotation Xrotation
					JOINT RightArm
					{
						OFFSET -0.096012 0.032551 -0.009143
						CHANNELS 3 Zrotation Yrotation Xrotation
						JOINT RightForeArm
						{
							OFFSET -0.253742 -0.013329 -0.021401
							CHANNELS 3 Zrotation Yrotation Xrotation
							JOINT RightHand
							{
								OFFSET -0.255298 0.007772 -0.005559
								CHANNELS 3 Zrotation Yrotation Xrotation
								End Site
								{
									OFFSET 0.000000 0.000000 0.000000
								}
							}
						}
					}
				}
			}
		}
	}
}
MOTION
Frames: 5
Frame Time: 0.050000
-0.011515 0.939404 -0.039089 -2.809850 -0.140402 22.074816 11.897111 -0.333218 -24.191792 -5.775921 0.637777 1.622085 10.722275 21.541343 18.092038 0.000000 0.000000 0.000000 -8.094510 1.495912 -29.371798 6.139404 -0.613784 1.049765 -3.316281 -12.863487 20.765630 0.000000 0.000000 0.000000 3.298153 -2.724042 33.493466 -4.414194 1.548708 -19.563502 -3.939079 6.052105 27.013776 19.355087 -6.799152 -31.981019 0.000000 0.000000 0.000000 7.415230 -22.772817 7.108788 -18.107827 -44.263443 0.670722 46.406315 -38.116794 -15.064202 0.000000 0.000000 0.000000 8.759154 8.864096 4.553574 33.872486 57.346917 11.038436 -43.701778 48.282141 -14.678271 0.000000 0.000000 0.000000 
-0.011283 0.939016 -0.040145 -2.825312 0.091836 22.174858 11.916789 -0.343085 -24.546816 -5.915186 0.655484 1.848416 10.675543 21.522686 17.785393 0.000000 0.000000 0.000000 -8.300914 1.446998 -29.622711 6.310631 -0.639095 1.231851 -3.496400 -13.105729 20.755107 0.000000 0.000000 0.000000 3.249158 -2.761061 33.833478 -4.387525 1.542379 -19.578878 -3.807389 6.285490 26.975098 19.046824 -6.829700 -31.054367 0.000000 0.000000 0.000000 7.428735 -22.805502 7.128891 -17.499218 -44.517750 0.458467 46.751891 -37.495782 -14.988241 0.000000 0.000000 0.000000 8.609270 8.851581 4.581613 32.952540 57.244839 10.599641 -43.709149 47.538513 -14.384906 0.000000 0.000000 0.000000 
-0.011112 0.938698 -0.041162 -2.773986 0.313378 22.301517 11.918912 -0.358209 -24.779245 -5.924842 0.652955 1.823882 10.689658 21.571724 17.881148 0.000000 0.000000 0.000000 -8.544386 1.390198 -29.882055 6.595465 -0.676203 1.342706 -3.640226 -13.289216 20.735096 0.000000 0.000000 0.000000 3.365378 -2.845515 33.977517 -4.534467 1.579577 -19.698153 -3.596377 6.345033 27.341430 18.742531 -6.873628 -30.253276 0.000000 0.000000 0.000000 7.451962 -22.617505 7.077752 -17.331210 -45.017637 0.389585 46.390586 -37.174811 -14.716053 0.000000 0.000000 0.000000 7.935313 8.701666 4.460373 32.799662 57.851833 10.780456 -44.094464 46.622278 -14.172694 0.000000 0.000000 0.000000 
-0.011049 0.938361 -0.042030 -2.735274 0.643935 22.380681 11.961514 -0.376571 -24.987455 -5.914458 0.647558 1.872534 10.646353 21.557470 17.800859 0.000000 0.000000 0.000000 -8.662547 1.340326 -29.964172 6.880511 -0.715247 1.393542 -3.858821 -13.571219 20.692405 0.000000 0.000000 0.000000 3.391285 -2.893882 33.946687 -4.407388 1.557859 -19.333416 -3.496781 6.464887 27.212431 18.375630 -6.911874 -29.158398 0.000000 0.000000 0.000000 7.449667 -22.642817 7.095584 -17.304892 -45.147086 0.355886 46.316702 -36.894715 -14.614447 0.000000 0.000000 0.000000 7.358437 8.620731 4.389756 32.743444 57.771585 10.827976 -44.436822 46.058093 -14.075947 0.000000 0.000000 0.000000 
-0.011054 0.938158 -0.042911 -2.746331 0.842127 22.296727 11.985082 -0.386720 -25.012191 -5.863833 0.638670 1.890743 10.530944 21.422366 17.659711 0.000000 0.000000 0.000000 -8.793975 1.296593 -29.969483 7.129570 -0.750325 1.518876 -3.909670 -13.604699 20.630708 0.000000 0.000000 0.000000 3.400827 -2.938982 34.181503 -4.418626 1.563962 -19.461647 -3.277422 6.474790 27.407418 18.104982 -6.819411 -28.910986 0.000000 0.000000 0.000000 7.540197 -22.483277 7.042676 -17.853005 -45.378103 0.512619 45.909758 -36.931828 -14.479969 0.000000 0.000000 0.000000 6.713848 8.547904 4.289316 33.283485 57.828419 11.191018 -44.944657 45.702487 -14.128480 0.000000 0.000000 0.000000 
